name rise37.2698peak67.6939fall79.5734.mot
datacolumns 19
datarows 35
range 12.18663500000000 12.24328900000000
endheader
time	ground_force1_vx	ground_force1_vy	ground_force1_vz	ground_force1_px	ground_force1_py	ground_force1_pz	ground_force2_vx	ground_force2_vy	ground_force2_vz	ground_force2_px	ground_force2_py	ground_force2_pz	ground_torque1_x	ground_torque1_y	ground_torque1_z	ground_torque2_x	ground_torque2_y	ground_torque2_z	
12.18663500000000	-43.49816700000000	816.75071500000001	46.87936700000000	0.10263200000000	0.00000000000000	0.07166600000000	0.00000000000000	0.00000000000000	0.00000000000000	0.00000000000000	0.00000000000000	0.00000000000000	0.00000000000000	15.68084200000000	0.00000000000000	0.00000000000000	0.00000000000000	0.00000000000000	
12.18830000000000	-43.94442600000000	815.97891900000002	46.88271700000000	0.10183600000000	0.00000000000000	0.07161900000000	0.00000000000000	0.00000000000000	0.00000000000000	0.00000000000000	0.00000000000000	0.00000000000000	0.00000000000000	15.59838700000000	0.00000000000000	0.00000000000000	0.00000000000000	0.00000000000000	
12.18995300000000	-44.39993900000000	815.08970799999997	46.86816000000000	0.10104100000000	0.00000000000000	0.07157100000000	0.00000000000000	0.00000000000000	0.00000000000000	0.00000000000000	0.00000000000000	0.00000000000000	0.00000000000000	15.51468800000000	0.00000000000000	0.00000000000000	0.00000000000000	0.00000000000000	
12.19161800000000	-44.86511700000000	814.08105799999998	46.83509700000000	0.10024800000000	0.00000000000000	0.07151900000000	-0.72144200000000	3.78079000000000	0.52327100000000	0.00000000000000	0.00000000000000	0.00000000000000	0.00000000000000	15.42988300000000	0.00000000000000	0.00000000000000	0.16537200000000	0.00000000000000	
12.19328900000000	-45.34033100000000	812.95101099999999	46.78295300000000	0.09945600000000	0.00000000000000	0.07146600000000	-1.21302200000000	7.13606500000000	0.91363000000000	0.00000000000000	0.00000000000000	0.00000000000000	0.00000000000000	15.34410900000000	0.00000000000000	0.00000000000000	0.29062700000000	0.00000000000000	
12.19495200000000	-45.82591200000000	811.69767200000001	46.71118000000000	0.09866500000000	0.00000000000000	0.07141100000000	-1.78039200000000	11.16934200000000	1.37115700000000	0.00000000000000	0.00000000000000	0.00000000000000	0.00000000000000	15.25750200000000	0.00000000000000	0.00000000000000	0.43786400000000	0.00000000000000	
12.19661800000000	-46.32214800000000	810.31920400000001	46.61925700000000	0.09787400000000	0.00000000000000	0.07135300000000	-2.40941200000000	15.83195000000000	1.88669700000000	0.00000000000000	0.00000000000000	0.00000000000000	0.00000000000000	15.17019900000000	0.00000000000000	0.00000000000000	0.60429600000000	0.00000000000000	
12.19829400000000	-46.82927800000000	808.81382799999994	46.50669300000000	0.09708400000000	0.00000000000000	0.07129300000000	-3.08142700000000	21.04462500000000	2.44751900000000	0.00000000000000	0.00000000000000	0.00000000000000	0.00000000000000	15.08233300000000	0.00000000000000	0.00000000000000	0.78599900000000	0.00000000000000	
12.19995300000000	-47.34749400000000	807.17981899999995	46.37302800000000	0.09629400000000	0.00000000000000	0.07123100000000	-3.77444900000000	26.70339600000000	3.03815200000000	0.33822900000000	0.00000000000000	-0.07596500000000	0.00000000000000	14.99403400000000	0.00000000000000	0.00000000000000	1.71904300000000	0.00000000000000	
12.20162500000000	-47.87693300000000	805.41550500000005	46.21783800000000	0.09550400000000	0.00000000000000	0.07116600000000	-4.46472100000000	32.68818600000000	3.64153600000000	0.34159800000000	0.00000000000000	-0.07616500000000	0.00000000000000	14.90543200000000	0.00000000000000	0.00000000000000	2.07940800000000	0.00000000000000	
12.20329300000000	-48.41767800000000	803.51926300000002	46.04073200000000	0.09471400000000	0.00000000000000	0.07109900000000	-5.12846700000000	38.87299900000000	4.24033700000000	0.34462400000000	0.00000000000000	-0.07635800000000	0.00000000000000	14.81665200000000	0.00000000000000	0.00000000000000	2.44237400000000	0.00000000000000	
12.20495500000000	-48.96975400000000	801.48951699999998	45.84136100000000	0.09392400000000	0.00000000000000	0.07102900000000	-5.74358100000000	45.13625000000000	4.81822400000000	0.34735700000000	0.00000000000000	-0.07654400000000	0.00000000000000	14.72781400000000	0.00000000000000	0.00000000000000	2.79848700000000	0.00000000000000	
12.20661700000000	-49.53312400000000	799.32473700000003	45.61941100000000	0.09313300000000	0.00000000000000	0.07095700000000	-6.29104500000000	51.36986500000000	5.36097800000000	0.34983500000000	0.00000000000000	-0.07672500000000	0.00000000000000	14.63903700000000	0.00000000000000	0.00000000000000	3.13939000000000	0.00000000000000	
12.20828900000000	-50.10769100000000	797.02343599999995	45.37461000000000	0.09234100000000	0.00000000000000	0.07088200000000	-6.75594100000000	57.48620200000000	5.85728200000000	0.35209300000000	0.00000000000000	-0.07690200000000	0.00000000000000	14.55043300000000	0.00000000000000	0.00000000000000	3.45832300000000	0.00000000000000	
12.20995900000000	-50.69329200000000	794.58416699999998	45.10673200000000	0.09154900000000	0.00000000000000	0.07080500000000	-7.12798000000000	63.42231200000000	6.29917200000000	0.35415800000000	0.00000000000000	-0.07707400000000	0.00000000000000	14.46210900000000	0.00000000000000	0.00000000000000	3.75041700000000	0.00000000000000	
12.21162100000000	-51.28969600000000	792.00552500000003	44.81559200000000	0.09075600000000	0.00000000000000	0.07072500000000	-7.40158500000000	69.14151600000000	6.68214200000000	0.35605400000000	0.00000000000000	-0.07724400000000	0.00000000000000	14.37416800000000	0.00000000000000	0.00000000000000	4.01279600000000	0.00000000000000	
12.21328800000000	-51.89660500000000	789.28614000000005	44.50105200000000	0.08996200000000	0.00000000000000	0.07064300000000	-7.57557400000000	74.63256199999999	7.00494600000000	0.35780000000000	0.00000000000000	-0.07741100000000	0.00000000000000	14.28670400000000	0.00000000000000	0.00000000000000	4.24448400000000	0.00000000000000	
12.21495900000000	-52.51365100000000	786.42467999999997	44.16302000000000	0.08916800000000	0.00000000000000	0.07055800000000	-7.65254100000000	79.90683400000000	7.26916800000000	0.35941400000000	0.00000000000000	-0.07757700000000	0.00000000000000	14.19980600000000	0.00000000000000	0.00000000000000	4.44618400000000	0.00000000000000	
12.21662500000000	-53.14039400000000	783.41984900000000	43.80145500000000	0.08837200000000	0.00000000000000	0.07047000000000	-7.63803700000000	84.99417699999999	7.47863300000000	0.36091000000000	0.00000000000000	-0.07774000000000	0.00000000000000	14.11355700000000	0.00000000000000	0.00000000000000	4.61994700000000	0.00000000000000	
12.21829100000000	-53.77632000000000	780.27038600000003	43.41636200000000	0.08757600000000	0.00000000000000	0.07037900000000	-7.53965500000000	89.93793200000000	7.63873300000000	0.36230000000000	0.00000000000000	-0.07790300000000	0.00000000000000	14.02803100000000	0.00000000000000	0.00000000000000	4.76878700000000	0.00000000000000	
12.21995200000000	-54.42084300000000	776.97506299999998	43.00780100000000	0.08678000000000	0.00000000000000	0.07028600000000	-7.36611300000000	94.78972200000000	7.75574700000000	0.36359500000000	0.00000000000000	-0.07806400000000	0.00000000000000	13.94329300000000	0.00000000000000	0.00000000000000	4.89628800000000	0.00000000000000	
12.22162300000000	-55.07330000000000	773.53268800000001	42.57587900000000	0.08598200000000	0.00000000000000	0.07019100000000	-7.12640600000000	99.60445700000000	7.83620300000000	0.36480400000000	0.00000000000000	-0.07822400000000	0.00000000000000	13.85940200000000	0.00000000000000	0.00000000000000	5.00622600000000	0.00000000000000	
12.22328500000000	-55.73295400000000	769.94210099999998	42.12075700000000	0.08518400000000	0.00000000000000	0.07009200000000	-6.82908500000000	104.43592800000000	7.88632700000000	0.36593600000000	0.00000000000000	-0.07838400000000	0.00000000000000	13.77640500000000	0.00000000000000	0.00000000000000	5.10224300000000	0.00000000000000	
12.22495600000000	-56.39899100000000	766.20217800000000	41.64265000000000	0.08438600000000	0.00000000000000	0.06999100000000	-6.48170000000000	109.33321700000000	7.91161700000000	0.36699600000000	0.00000000000000	-0.07854400000000	0.00000000000000	13.69434300000000	0.00000000000000	0.00000000000000	5.18759000000000	0.00000000000000	
12.22663600000000	-57.07052200000000	762.31183199999998	41.14182400000000	0.08358700000000	0.00000000000000	0.06988700000000	-6.09041900000000	114.33807600000000	7.91653800000000	0.36799200000000	0.00000000000000	-0.07870300000000	0.00000000000000	13.61324400000000	0.00000000000000	0.00000000000000	5.26493400000000	0.00000000000000	
12.22829300000000	-57.74658100000000	758.27000799999996	40.61859900000000	0.08278800000000	0.00000000000000	0.06978100000000	-5.65982600000000	119.48329300000000	7.90435600000000	0.36892800000000	0.00000000000000	-0.07886200000000	0.00000000000000	13.53312900000000	0.00000000000000	0.00000000000000	5.33625400000000	0.00000000000000	
12.22997000000000	-58.42612600000000	754.07569500000000	40.07334900000000	0.08198800000000	0.00000000000000	0.06967200000000	-5.19287000000000	124.79199199999999	7.87708200000000	0.36980800000000	0.00000000000000	-0.07902100000000	0.00000000000000	13.45400500000000	0.00000000000000	0.00000000000000	5.40279800000000	0.00000000000000	
12.23162900000000	-59.10804100000000	749.72791800000005	39.50650200000000	0.08118900000000	0.00000000000000	0.06956000000000	-4.69095700000000	130.27775299999999	7.83553100000000	0.37063700000000	0.00000000000000	-0.07918000000000	0.00000000000000	13.37587200000000	0.00000000000000	0.00000000000000	5.46511200000000	0.00000000000000	
12.23330300000000	-59.79113400000000	745.22574899999995	38.91853700000000	0.08038900000000	0.00000000000000	0.06944600000000	-4.15414600000000	135.94539900000001	7.77945000000000	0.37141600000000	0.00000000000000	-0.07933900000000	0.00000000000000	13.29871600000000	0.00000000000000	0.00000000000000	5.52310300000000	0.00000000000000	
12.23495700000000	-60.47414100000000	740.56830400000001	38.30998800000000	0.07959000000000	0.00000000000000	0.06933000000000	-3.58140600000000	141.79225099999999	7.70771000000000	0.37215000000000	0.00000000000000	-0.07949800000000	0.00000000000000	13.22251400000000	0.00000000000000	0.00000000000000	5.57615000000000	0.00000000000000	
12.23661700000000	-61.15572800000000	735.75475400000005	37.68143800000000	0.07879100000000	0.00000000000000	0.06921000000000	-2.97092100000000	147.80968999999999	7.61852400000000	0.37284000000000	0.00000000000000	-0.07965800000000	0.00000000000000	13.14722900000000	0.00000000000000	0.00000000000000	5.62323000000000	0.00000000000000	
12.23828400000000	-61.83448900000000	730.78432599999996	37.03352400000000	0.07799200000000	0.00000000000000	0.06908900000000	-2.32039800000000	153.98483700000000	7.50967900000000	0.37348800000000	0.00000000000000	-0.07981700000000	0.00000000000000	13.07281700000000	0.00000000000000	0.00000000000000	5.66304600000000	0.00000000000000	
12.23995100000000	-62.50895300000000	725.65631099999996	36.36693100000000	0.07719400000000	0.00000000000000	0.06896500000000	-1.62736100000000	160.30222000000001	7.37875400000000	0.37409600000000	0.00000000000000	-0.07997700000000	0.00000000000000	12.99921900000000	0.00000000000000	0.00000000000000	5.69416300000000	0.00000000000000	
12.24162400000000	-63.17758300000000	720.37006899999994	35.68239400000000	0.07639600000000	0.00000000000000	0.06883900000000	-0.88941000000000	166.74529000000001	7.22332000000000	0.37466500000000	0.00000000000000	-0.08013800000000	0.00000000000000	12.92636600000000	0.00000000000000	0.00000000000000	5.71512100000000	0.00000000000000	
12.24328900000000	-63.83878200000000	714.92504199999996	34.98069300000000	0.07559900000000	0.00000000000000	0.06871000000000	-0.10443500000000	173.29771800000000	7.04110500000000	0.37519700000000	0.00000000000000	-0.08029800000000	0.00000000000000	12.85417800000000	0.00000000000000	0.00000000000000	5.72453100000000	0.00000000000000	
